<svg width="23" height="23" viewBox="0 0 23 23" fill="none" xmlns="http://www.w3.org/2000/svg">
<path d="M11.3309 0.183716C17.4875 0.183716 22.4781 5.17438 22.4781 11.3309C22.4781 17.4875 17.4875 22.4781 11.3309 22.4781C5.17437 22.4781 0.183712 17.4875 0.183712 11.3309C0.183712 5.17438 5.17437 0.183716 11.3309 0.183716ZM11.3309 21.3732C16.8773 21.3732 21.3732 16.8773 21.3732 11.3309C21.3732 5.78453 16.8773 1.28864 11.3309 1.28864C5.78453 1.28864 1.28864 5.78453 1.28864 11.3309C1.28864 16.8773 5.78453 21.3732 11.3309 21.3732Z" fill="#FF6712"/>
<path d="M11.3309 2.39359C16.2666 2.39359 20.2683 6.39526 20.2683 11.3309C20.2683 16.2666 16.2666 20.2683 11.3309 20.2683C6.39524 20.2683 2.39356 16.2666 2.39356 11.3309C2.39356 6.39526 6.39524 2.39359 11.3309 2.39359ZM4.73676 14.7927H5.31372V15.7871C5.31372 16.1942 5.64356 16.5235 6.05015 16.5235H6.62112C7.02825 16.5235 7.35755 16.1937 7.35755 15.7871V14.7927H9.23157V15.1612C9.23157 15.466 9.47922 15.7136 9.78403 15.7136H12.8871C13.1919 15.7136 13.4395 15.466 13.4395 15.1612V14.7927H15.4496V15.8241C15.4496 16.2313 15.7795 16.5606 16.1861 16.5606H16.757C17.1642 16.5606 17.4935 16.2307 17.4935 15.8241V14.7927H17.8848C18.0884 14.7927 18.2533 14.6278 18.2533 14.4242V13.9822C18.2533 13.7835 18.0954 13.6213 17.8984 13.6143V12.3314C17.8984 12.3314 17.9534 11.2999 17.4445 10.8275C17.0553 10.4666 16.652 10.1308 16.4832 9.99197C16.4294 9.94788 16.3891 9.88964 16.3673 9.82324C16.2699 9.52878 15.9896 8.67586 15.8763 8.29866C15.7381 7.83819 15.4251 6.91125 15.4251 6.91125C15.4251 6.91125 15.1122 6.16829 14.3692 6.16829H11.492C11.492 6.16829 11.3614 6.16829 11.1508 6.16829H8.27415C7.53118 6.16829 7.21821 6.91125 7.21821 6.91125C7.21821 6.91125 6.90524 7.83819 6.76699 8.29866C6.65378 8.67641 6.37292 9.52932 6.27549 9.82324C6.25372 9.88964 6.21344 9.94788 6.1601 9.99197C5.99082 10.1302 5.5875 10.4666 5.19887 10.8275C4.68941 11.3005 4.74438 12.3314 4.74438 12.3314V13.6143H4.73676C4.5332 13.6143 4.36827 13.7792 4.36827 13.9828V14.4247C4.36882 14.6278 4.53374 14.7927 4.73676 14.7927Z" fill="#FF6712"/>
<path d="M4.36877 13.9827V14.4247C4.36877 14.6283 4.53369 14.7932 4.73726 14.7932H17.8853C18.0889 14.7932 18.2538 14.6283 18.2538 14.4247V13.9827C18.2538 13.7841 18.0959 13.6219 17.8989 13.6148C17.8945 13.6143 17.8902 13.6143 17.8853 13.6143H4.73726C4.53369 13.6143 4.36877 13.7792 4.36877 13.9827Z" fill="#D4D5D6"/>
<path d="M15.4496 14.7927V15.8241C15.4496 16.2312 15.7795 16.5605 16.1861 16.5605H16.757C17.1642 16.5605 17.4935 16.2307 17.4935 15.8241V14.7927H15.4496Z" fill="#342E37"/>
<path d="M5.31368 14.7927V15.7871C5.31368 16.1942 5.64352 16.5235 6.05011 16.5235H6.62108C7.02821 16.5235 7.35751 16.1937 7.35751 15.7871V14.7927H5.31368Z" fill="#342E37"/>
<path d="M9.23152 14.7927V15.1612C9.23152 15.466 9.47918 15.7136 9.78399 15.7136H12.887C13.1918 15.7136 13.4395 15.466 13.4395 15.1612V14.7927H9.23152Z" fill="#342E37"/>
<path d="M13.6725 11.4044C13.6725 11.4947 13.7367 11.559 13.8211 11.559C13.8325 11.559 13.8445 11.5579 13.857 11.5552C14.1596 11.4942 14.4672 11.4637 14.7747 11.4637C15.0822 11.4637 15.3897 11.4942 15.6924 11.5552C15.7936 11.5758 15.8763 11.5078 15.8763 11.4044V11.3189C15.8763 10.7104 15.3827 10.2167 14.7741 10.2167C14.1656 10.2167 13.6719 10.7099 13.6719 11.3189V11.4044H13.6725ZM9.72905 12.9056C10.1226 13.2071 10.6315 13.3938 11.092 13.3938H11.5524C12.4728 13.3938 13.587 12.6476 13.587 11.7272H9.05684C9.05684 12.1871 9.33552 12.6035 9.72905 12.9056ZM6.76698 11.4044C6.76698 11.4947 6.83121 11.559 6.91558 11.559C6.92701 11.559 6.93898 11.5579 6.9515 11.5552C7.25413 11.4942 7.56166 11.4637 7.86918 11.4637C8.17671 11.4637 8.48424 11.4942 8.78687 11.5552C8.88811 11.5758 8.97084 11.5078 8.97084 11.4044V11.3189C8.97084 10.7104 8.47716 10.2167 7.86864 10.2167C7.26012 10.2167 6.76644 10.7099 6.76644 11.3189V11.4044H6.76698ZM5.19941 10.8274C5.58858 10.4666 5.99136 10.1307 6.16064 9.99194C6.21452 9.94785 6.2548 9.88961 6.27603 9.82321C6.37346 9.52874 6.65377 8.67583 6.76753 8.29863C6.90578 7.83816 7.21875 6.91122 7.21875 6.91122C7.21875 6.91122 7.53172 6.16825 8.27469 6.16825H11.1513C11.3614 6.16825 11.4926 6.16825 11.4926 6.16825H14.3697C15.1127 6.16825 15.4257 6.91122 15.4257 6.91122C15.4257 6.91122 15.7386 7.83816 15.8769 8.29863C15.9901 8.67637 16.2704 9.52929 16.3678 9.82321C16.3902 9.88961 16.4299 9.94785 16.4838 9.99194C16.6525 10.1302 17.0564 10.4666 17.445 10.8274C17.9545 11.3004 17.8989 12.3313 17.8989 12.3313V13.6142C17.8946 13.6137 17.8902 13.6137 17.8853 13.6137H4.74492V12.3308C4.74492 12.3313 4.6894 11.3004 5.19941 10.8274ZM15.7179 9.92826L15.7092 9.89941L15.1121 7.96062C15.1121 7.96062 14.9031 7.29767 14.6822 7.12295C14.4612 6.94823 14.3784 6.82522 13.2615 6.82522H12.1272C12.1272 6.82522 11.3434 6.82522 10.5297 6.82522H9.39594C8.2785 6.82522 8.19576 6.94768 7.97478 7.12295C7.75379 7.29767 7.54533 7.96062 7.54533 7.96062L6.93898 9.92826H15.7179Z" fill="#3C91E6"/>
<path d="M13.6725 11.3189V11.4044C13.6725 11.4948 13.7367 11.559 13.8211 11.559C13.8325 11.559 13.8445 11.5579 13.857 11.5552C14.1596 11.4942 14.4672 11.4637 14.7747 11.4637C15.0822 11.4637 15.3897 11.4942 15.6924 11.5552C15.7936 11.5759 15.8763 11.5078 15.8763 11.4044V11.3189C15.8763 10.7104 15.3827 10.2167 14.7741 10.2167C14.1656 10.2167 13.6725 10.7099 13.6725 11.3189Z" fill="white"/>
<path d="M9.05685 11.7266C9.05685 12.1866 9.33553 12.6035 9.72906 12.905C10.1226 13.2066 10.6315 13.3933 11.092 13.3933H11.5525C12.4729 13.3933 13.587 12.647 13.587 11.7266H9.05685Z" fill="#7AA0A8"/>
<path d="M6.76694 11.3189V11.4044C6.76694 11.4948 6.83117 11.559 6.91553 11.559C6.92696 11.559 6.93894 11.5579 6.95146 11.5552C7.25408 11.4942 7.56161 11.4637 7.86914 11.4637C8.17667 11.4637 8.4842 11.4942 8.78682 11.5552C8.88806 11.5759 8.97079 11.5078 8.97079 11.4044V11.3189C8.97079 10.7104 8.47712 10.2167 7.8686 10.2167C7.26062 10.2167 6.76694 10.7099 6.76694 11.3189Z" fill="white"/>
<path d="M9.77363 9.92828H15.7179L15.7092 9.89944L15.1121 7.96065C15.1121 7.96065 14.9031 7.2977 14.6821 7.12298C14.4611 6.94826 14.3784 6.82525 13.2615 6.82525H12.4363L9.77363 9.92828Z" fill="#7AA0A8"/>
<path d="M6.939 9.92828H9.7737L12.4364 6.82525H12.1272C12.1272 6.82525 11.3435 6.82525 10.5297 6.82525H9.39596C8.27851 6.82525 8.19578 6.94772 7.9748 7.12298C7.75381 7.2977 7.54535 7.96065 7.54535 7.96065L6.939 9.92828Z" fill="#A2D5E0"/>
</svg>
